<svg width="30" height="28" fill="none" xmlns="http://www.w3.org/2000/svg"><path d="M27.49 12.34H2.51a.47.47 0 0 0-.47.47v14.72c0 .26.2.47.47.47h24.98c.26 0 .47-.21.47-.47V12.8a.47.47 0 0 0-.47-.47z" fill="#F7434C"/><path d="M27.49 12.34H2.51a.47.47 0 0 0-.47.47v1.9h25.92v-1.9a.47.47 0 0 0-.47-.47z" fill="#DB2E37"/><path d="M17.42 12.34h-4.84a.47.47 0 0 0-.47.47v14.72c0 .26.2.47.47.47h4.84c.26 0 .47-.21.47-.47V12.8a.47.47 0 0 0-.47-.47z" fill="#FFDB57"/><path d="M17.42 12.34h-4.84a.47.47 0 0 0-.47.47v1.9h5.78v-1.9a.47.47 0 0 0-.47-.47z" fill="#F5BA3D"/><path d="M26.57 3.58A9.58 9.58 0 0 0 24.6.42 1.44 1.44 0 0 0 23.52 0c-1.42.03-3.74 1.82-6.89 5.31a.47.47 0 0 0-.12.32v2.5c0 .27.21.48.47.48h7.29c1.62 0 2.3-.8 2.57-1.45.37-.89.27-2.16-.27-3.58z" fill="#FFDB57"/><path d="M26.84 4.4a.48.48 0 0 0-.06-.13c-.72-1.08-2.26-.68-3.43-.15-3.4 1.55-4.81 3.67-4.87 3.76a.47.47 0 0 0 .4.73h5.39c1.03 0 1.8-.32 2.28-.94.57-.75.67-1.87.29-3.26z" fill="#EF9325"/><path d="M13.37 5.31C10.22 1.82 7.9.03 6.47 0c-.42 0-.8.13-1.08.42a9.58 9.58 0 0 0-1.96 3.16C2.9 5 2.8 6.28 3.16 7.16c.28.66.95 1.45 2.57 1.45h7.29c.26 0 .47-.21.47-.47V5.63a.47.47 0 0 0-.12-.32z" fill="#FFDB57"/><path d="M11.52 7.88c-.06-.1-1.46-2.21-4.86-3.76-1.18-.53-2.72-.93-3.44.15a.48.48 0 0 0-.06.14c-.38 1.39-.28 2.51.3 3.26.47.62 1.24.94 2.27.94h5.4a.47.47 0 0 0 .39-.73z" fill="#EF9325"/><path d="M16.98 4.69h-3.96a.47.47 0 0 0-.48.47v2.98c0 .26.21.47.48.47h3.96c.27 0 .48-.21.48-.47V5.16a.47.47 0 0 0-.48-.47z" fill="#F5BA3D"/><path d="M29.53 7.66H.47a.47.47 0 0 0-.47.48v4.68c0 .26.21.47.47.47h29.06c.26 0 .47-.21.47-.47V8.14a.47.47 0 0 0-.47-.48z" fill="#F7434C"/><path d="M18.64 7.66h-7.28v5.63h7.28V7.66z" fill="#FFDB57"/></svg>