<svg width="24" height="22" fill="none" xmlns="http://www.w3.org/2000/svg"><path d="M22 9.7H2c-.2 0-.37.16-.37.37v11.56c0 .2.17.37.38.37h19.98c.21 0 .38-.17.38-.37V10.07c0-.2-.17-.37-.38-.37z" fill="#fff"/><path d="M22 9.7H2c-.2 0-.37.16-.37.37v1.49h20.74v-1.5c0-.2-.17-.36-.38-.36z" fill="#BEBEBE"/><path d="M13.94 9.7h-3.88c-.2 0-.38.16-.38.37v11.56c0 .2.17.37.38.37h3.88c.2 0 .37-.17.37-.37V10.07c0-.2-.17-.37-.37-.37z" fill="#FFDB57"/><path d="M13.94 9.7h-3.88c-.2 0-.38.16-.38.37v1.48h4.63v-1.48c0-.2-.17-.37-.37-.37z" fill="#F5BA3D"/><path d="M21.25 2.82A7.5 7.5 0 0 0 19.7.32a1.17 1.17 0 0 0-.87-.32c-1.14.03-3 1.43-5.51 4.17a.37.37 0 0 0-.1.25V6.4c0 .2.17.37.38.37h5.83c1.3 0 1.83-.62 2.05-1.14.3-.7.22-1.69-.22-2.8z" fill="#FFDB57"/><path d="M21.47 3.46a.37.37 0 0 0-.05-.1c-.57-.85-1.8-.54-2.74-.12a9.33 9.33 0 0 0-3.9 2.95.37.37 0 0 0 0 .38c.06.12.18.2.32.2h4.32c.82 0 1.44-.25 1.82-.75.45-.58.53-1.47.23-2.56z" fill="#EF9325"/><path d="M10.7 4.17C8.17 1.43 6.31.03 5.17 0c-.34 0-.64.1-.87.33a7.5 7.5 0 0 0-1.56 2.49c-.44 1.11-.52 2.1-.22 2.8.22.52.76 1.14 2.05 1.14h5.83c.21 0 .38-.16.38-.37V4.42c0-.09-.03-.18-.1-.25z" fill="#FFDB57"/><path d="M9.21 6.19a9.33 9.33 0 0 0-3.89-2.95c-.93-.42-2.17-.73-2.74.12a.37.37 0 0 0-.05.1c-.3 1.1-.22 1.98.23 2.56.38.5 1 .74 1.82.74H8.9a.37.37 0 1 0 .32-.58z" fill="#EF9325"/><path d="M13.59 3.68H10.4c-.2 0-.38.17-.38.37V6.4c0 .2.17.38.38.38h3.18c.2 0 .38-.17.38-.38V4.05c0-.2-.17-.37-.38-.37z" fill="#F5BA3D"/><path d="M23.62 6.02H.38c-.21 0-.38.17-.38.37v3.68c0 .2.17.37.38.37h23.24c.21 0 .38-.17.38-.37V6.39c0-.2-.17-.37-.38-.37z" fill="#fff"/><path d="M14.91 6.02H9.1v4.42h5.82V6.02z" fill="#FFDB57"/></svg>