<svg width="158" height="40" viewBox="0 0 158 40" fill="none" xmlns="http://www.w3.org/2000/svg"><path d="M139.54 39.96h-18.28v-4.72l8.26-7.61c1.55-1.48 1.8-2.36 1.8-3.14 0-1.09-.74-1.8-2.22-1.8a3.7 3.7 0 0 0-3.36 2.12l-5.78-2.89c1.65-3.14 4.94-5.29 9.88-5.29 5.4 0 9.24 2.79 9.24 7.12 0 2.26-.6 4.27-3.91 7.26l-3.25 2.96h7.62v6zM118.47 17.2V40h-7.69V23.01h-3.92v-5.78h11.61v-.03zM145.79 26.54a27.53 27.53 0 0 1-.42 13.46h11.89c.5-2.26.74-4.62.74-7.05 0-2.47-.28-4.86-.78-7.19l-11.43.78zM156.84 24a32.34 32.34 0 0 0-6.78-12.72l-7.9 6.59a26.44 26.44 0 0 1 3.2 6.98l11.44-.78c.03-.03.07-.03.03-.07zM148.44 8.56a28.91 28.91 0 0 0-7.06-5.18l-4.24 7.86a26.01 26.01 0 0 1 3.64 3.74l7.66-6.42z" fill="#FA0"/><path d="M130.47 7.26c1.7.63 3.28 1.48 4.77 2.5l3.98-7.43a28.03 28.03 0 0 0-7.8-2.08l-.95 7.01zM121.4 5.74l.85-.03c2.05 0 4.02.28 5.93.77l.92-6.44c-.36 0-.67-.04-1.03-.04-2.68 0-5.25.39-7.73 1.06l1.06 4.68zM114.34 7.15A20.5 20.5 0 0 1 119 6l-.95-4.12a27.37 27.37 0 0 0-5.19 2.57l1.48 2.71zM106.37 12.05a23.17 23.17 0 0 1 5.79-3.98l-1.27-2.29a30.44 30.44 0 0 0-5.55 5.32l1.03.95zM100.05 21.25a25.19 25.19 0 0 1 4.34-7.12c.18-.2.18-.53-.03-.7-.25-.21-.6-.18-.78.07a34.8 34.8 0 0 0-3.78 7.72c-.1.28 0 .28.25.03zM102.91 35.95c0 2.43-2.61 4.05-6.25 4.05-2 0-4.02-.5-5.57-1.37l.88-2.26a9.67 9.67 0 0 0 4.55 1.13c2.05 0 3.28-.67 3.28-1.8 0-1.02-.91-1.59-2.57-1.59h-2.54v-2.04h2.3c1.54 0 2.43-.53 2.43-1.48s-1.1-1.55-2.93-1.55c-1.3 0-2.69.32-4.13.95l-.78-2.25c1.8-.85 3.46-1.2 5.19-1.2 3.35 0 5.79 1.44 5.79 3.6 0 1.26-.85 2.32-2.2 2.85 1.6.45 2.55 1.51 2.55 2.96zM88.93 32.1v7.65h-2.89v-1.58c-.74 1.13-2.15 1.76-4.1 1.76-3 0-4.86-1.62-4.86-3.91 0-2.19 1.48-3.88 5.43-3.88h3.39v-.21c0-1.8-1.06-2.82-3.25-2.82-1.48 0-3 .5-3.95 1.3l-1.2-2.22c1.38-1.05 3.42-1.62 5.54-1.62 3.7 0 5.9 1.8 5.9 5.54zm-3.07 3.6v-1.52h-3.14c-2.08 0-2.64.78-2.64 1.73 0 1.1.91 1.8 2.5 1.8 1.48 0 2.79-.67 3.28-2.01zM75.77 25.37H67.3l.04 14.42H64.2V22.66h11.6l-.03 2.71zM46.9 33.23c0-3.9 2.93-6.66 6.95-6.66 4.06 0 7 2.75 7 6.66 0 3.92-2.9 6.7-7 6.7-4.02 0-6.95-2.78-6.95-6.7zm10.84 0c0-2.5-1.66-4.08-3.89-4.08-2.18 0-3.84 1.58-3.84 4.08s1.66 4.1 3.84 4.1c2.2 0 3.89-1.6 3.89-4.1zM46.34 29.32h-4.59V39.8h-3.07V29.32h-4.59v-2.57h12.25v2.57zM32.75 36.09c0 2.29-1.73 3.66-5.22 3.66h-6.64V26.71h6.39c3.18 0 5.08 1.24 5.08 3.39 0 1.34-.74 2.36-2 2.89 1.58.49 2.4 1.51 2.4 3.1zm-8.96-3.91h3.2c1.56 0 2.37-.57 2.37-1.63 0-1.05-.8-1.58-2.36-1.58h-3.21v3.2zm6 3.73c0-1.16-.74-1.72-2.44-1.72h-3.6v3.34h3.5c1.65 0 2.54-.49 2.54-1.62zM13.55 35.8H4.98l-1.7 3.95H0l7.73-17.09h3.14l7.73 17.1h-3.32l-1.73-3.95zm-1.06-2.5l-3.2-7.47-3.22 7.47h6.42z" fill="#0C338B"/></svg>